<?xml version="1.0" encoding="UTF-8"?>
<svg id="Layer_1" data-name="Layer 1" xmlns="http://www.w3.org/2000/svg" viewBox="0 0 841.89 595.28">
  <defs>
    <style>
      .cls-1 {
        fill: #ff914d;
      }
    </style>
  </defs>
  <path class="cls-1" d="M150.16,111.78c17.08,4.66,13.21,22.45,13.99,36.15,1.04,18.36,2.21,36.82,3.13,55.19.2,4-.21,8.09-.04,12.09,174.93,1.67,348.31,54.82,493.65,150.86,14.92-20.04,28.76-41.11,44.03-60.9,6.15-7.98,10.6-16.3,22.42-14.17,5.33.96,10.5,5.14,12.21,10.32,4.12,12.49-4.3,17.78-9.92,27.42,12.65,1.06,17.91,15.62,11.51,25.92l-13.06,18.41c8.7-.26,16.2,7.26,16.37,15.95.18,9.36-9.82,18.41-14.82,25.66,11.11,6.71,9.71,24.48-2.57,29.31-6.66,2.62-10.89.85-17.13-1.67-5.61,6.05-9.96,17.68-18.94,19.21-9.07,1.54-16.78-1.96-20.01-10.7-5.67,5.92-13.16,22.04-21.32,23.76-8.77,1.85-15.78-.79-20.63-8.19-5.24,6.28-8.52,14.09-16.7,17.09h-9.32c-9.89-3.82-14.36-13.14-10.47-23.32l48.19-67.68c-100.63-65.22-213.39-110.74-331.97-131.17-38.63-6.65-78.56-11.24-117.79-12.72-7.3-.28-15.15.9-22.16-.75l3.91,73.46c2.05,13.85-9.37,25.24-23.12,20.04-4.33-1.64-10.32-8.35-10.32-13v-14l-1.6-.86c-8.22,4.38-19.53.63-22.85-8.1-.85-2.25-1.96-8.29-1.96-10.48v-15.55c0-.11-.94-2.04-1.16-1.94-4.24,4.09-12.09,4.02-17.23,1.69-11.08-5.03-9.34-18.78-9.57-28.91-12.09,2.15-23.03.05-26.41-13.22v-5.44c1.94-4.88,3.23-8.97,8.13-11.69,5.68-3.15,10.64-1.7,16.64-3.16.11-9.82-3.84-25.14,3.17-33,5.56-6.24,14.69-6.63,21.76-2.7l-1.57-22.9c.66-12.69,12.31-20.23,24.1-15.21v-19.05c0-5.01,8.59-11.12,13.21-12.05h6.21Z"/>
  <g>
    <path class="cls-1" d="M201.48,208.27c-1.01-.04-1.78-.38-2.45-1.11l-5.91-6.4c-.67-.73-.95-1.52-.91-2.53l1.33-33.65c.04-1.01.38-1.78,1.11-2.45l6.4-5.91c.73-.67,1.52-.95,2.53-.91l18.62.74c1.01.04,1.78.38,2.45,1.11l5.91,6.4c.67.73.95,1.52.91,2.53l-.4,10.05c-.08,1.95-.97,2.77-2.92,2.69l-8.8-.35c-1.95-.08-2.77-.97-2.69-2.92l.25-6.23-9.11-.36-1.03,26.02,9.11.36.25-6.23c.08-1.95.97-2.77,2.92-2.69l8.8.35c1.95.08,2.77.97,2.69,2.92l-.4,10.05c-.04,1.01-.38,1.78-1.11,2.45l-6.4,5.91c-.73.67-1.52.95-2.53.91l-18.62-.74Z"/>
    <path class="cls-1" d="M244.55,210.59c-1.01-.09-1.76-.47-2.39-1.24l-5.58-6.69c-.64-.76-.88-1.57-.79-2.58l3.04-33.56c.09-1.01.47-1.76,1.23-2.39l6.69-5.58c.76-.64,1.57-.88,2.58-.79l20.12,1.82c1.01.09,1.76.47,2.39,1.24l5.58,6.69c.64.76.88,1.57.78,2.58l-3.03,33.56c-.09,1.01-.47,1.76-1.24,2.39l-6.69,5.58c-.76.64-1.57.88-2.58.79l-20.12-1.82ZM250.51,197.58l10.64.96,2.35-25.95-10.64-.96-2.35,25.95Z"/>
    <path class="cls-1" d="M315.6,165.45c1.93.27,2.82,1.19,2.92,3.25l2.23,47.64c.07,2.29-.62,3.3-2.78,2.99l-9.26-1.31c-1.62-.23-2.31-.96-2.36-2.77l-.13-5.77-12.51-1.77-1.8,5.5c-.56,1.73-1.42,2.24-3.04,2.01l-9.26-1.31c-2.16-.3-2.55-1.46-1.84-3.65l15.37-45.15c.67-1.95,1.78-2.58,3.71-2.31l18.76,2.66ZM305.41,172.91l-.85-.12-7.09,22.86,8.42,1.19-.47-23.93Z"/>
    <path class="cls-1" d="M332.68,222.06c-.99-.19-1.7-.65-2.26-1.47l-4.88-7.22c-.56-.82-.72-1.65-.52-2.64l6.38-33.08c.19-.99.64-1.7,1.47-2.26l7.21-4.88c.82-.55,1.65-.71,2.64-.52l18.3,3.53c1,.19,1.7.65,2.26,1.47l4.88,7.22c.56.82.71,1.64.52,2.64l-1.91,9.88c-.37,1.91-1.37,2.59-3.29,2.23l-8.65-1.67c-1.91-.37-2.59-1.37-2.22-3.29l1.18-6.12-8.96-1.73-4.93,25.57,8.96,1.73,1.18-6.13c.37-1.91,1.37-2.59,3.29-2.23l8.65,1.67c1.91.37,2.59,1.38,2.23,3.29l-1.9,9.88c-.19.99-.65,1.7-1.47,2.26l-7.22,4.88c-.82.56-1.64.72-2.64.52l-18.3-3.53Z"/>
    <path class="cls-1" d="M368.62,229.26c-1.89-.47-2.52-1.5-2.05-3.4l11.35-46.03c.47-1.89,1.5-2.52,3.4-2.05l8.63,2.13c1.89.47,2.52,1.5,2.05,3.4l-4.07,16.51,10.37,2.56,4.07-16.5c.47-1.89,1.51-2.52,3.4-2.05l8.63,2.13c1.89.47,2.52,1.51,2.05,3.4l-11.35,46.03c-.47,1.89-1.5,2.52-3.4,2.05l-8.63-2.13c-1.89-.47-2.52-1.51-2.05-3.4l4.05-16.43-10.37-2.56-4.05,16.43c-.47,1.89-1.5,2.52-3.4,2.05l-8.63-2.13Z"/>
  </g>
  <g>
    <path class="cls-1" d="M382.04,284.86c1.88.53,2.64,1.55,2.47,3.61l-4.09,47.53c-.24,2.28-1.06,3.19-3.16,2.6l-9.01-2.53c-1.58-.44-2.16-1.25-1.98-3.06l.64-5.73-12.16-3.41-2.51,5.21c-.79,1.64-1.7,2.03-3.28,1.59l-9.01-2.53c-2.1-.59-2.33-1.79-1.35-3.86l21.21-42.73c.92-1.85,2.11-2.32,3.99-1.8l18.25,5.11ZM370.95,290.91l-.83-.23-10.06,21.72,8.19,2.29,2.7-23.78Z"/>
    <path class="cls-1" d="M389.52,342.2c-1.84-.65-2.14-1.67-1.7-3.59l9.94-46.54c.44-2.16,1.46-2.71,3.45-2l9.85,3.5c1.83.65,2.13,1.67,1.7,3.59l-7.97,34.5.59.21,17.09-31.75c.77-1.46,1.74-1.86,3.28-1.31l15.13,5.39c1.54.55,2.04,1.47,1.71,3.09l-6.73,35.43.59.21,15.69-31.75c.87-1.76,1.75-2.36,3.58-1.7l9.85,3.5c1.98.71,2.43,1.78,1.4,3.73l-21.77,42.33c-.87,1.76-1.75,2.36-3.58,1.7l-18.37-6.54c-1.69-.6-2.24-1.62-1.83-3.47l7.04-34.67-.59-.21-16.37,31.34c-.85,1.69-1.92,2.13-3.61,1.53l-18.37-6.54Z"/>
    <path class="cls-1" d="M501.17,328.66c1.78.78,2.4,1.9,1.95,3.91l-10.55,46.52c-.54,2.23-1.48,3.01-3.48,2.14l-8.58-3.74c-1.5-.65-1.97-1.54-1.54-3.31l1.41-5.59-11.59-5.04-3.2,4.81c-1,1.52-1.97,1.78-3.47,1.13l-8.58-3.73c-2-.87-2.07-2.09-.81-4.01l26.85-39.42c1.17-1.7,2.41-2.01,4.2-1.24l17.38,7.56ZM489.35,333.13l-.79-.34-12.93,20.14,7.79,3.39,5.93-23.19Z"/>
    <path class="cls-1" d="M503.99,388.51c-1.75-.86-2.14-2.01-1.28-3.76l16.2-32.97-7.14-3.51c-1.75-.86-2.14-2.01-1.29-3.76l3.48-7.07c.86-1.75,2.01-2.14,3.76-1.28l27.23,13.38c1.75.86,2.14,2.01,1.28,3.76l-3.47,7.07c-.86,1.75-2.01,2.14-3.76,1.28l-7.14-3.51-16.2,32.97c-.86,1.75-2.01,2.14-3.76,1.28l-7.91-3.89Z"/>
    <path class="cls-1" d="M529.82,401.47c-1.71-.93-2.05-2.1-1.12-3.81l22.73-41.62c.93-1.71,2.1-2.05,3.81-1.12l24.44,13.35c1.71.93,2.05,2.1,1.12,3.81l-3.74,6.85c-.94,1.71-2.1,2.05-3.81,1.12l-14.44-7.89-3.1,5.68,12.8,6.99c1.71.94,2.05,2.1,1.12,3.81l-3.66,6.71c-.94,1.71-2.1,2.05-3.81,1.12l-12.8-6.99-3.1,5.68,14.44,7.89c1.71.93,2.05,2.1,1.12,3.81l-3.74,6.85c-.93,1.71-2.1,2.05-3.81,1.12l-24.44-13.35Z"/>
    <path class="cls-1" d="M563.65,420.26c-1.67-1.01-1.96-2.19-.95-3.86l24.51-40.59c1.01-1.67,2.19-1.96,3.86-.95l22.63,13.67c1.67,1.01,1.96,2.19.95,3.86l-4.07,6.74c-1.01,1.67-2.19,1.96-3.86.95l-12.68-7.66-4.07,6.74,11.75,7.1c1.67,1.01,1.96,2.19.95,3.86l-4.07,6.74c-1.01,1.67-2.18,1.96-3.85.95l-11.75-7.1-7.95,13.15c-1.01,1.67-2.18,1.96-3.85.95l-7.54-4.56Z"/>
  </g>
</svg>